<?xml version="1.0" encoding="utf-8"?>
<!-- Generator: Adobe Illustrator 24.1.1, SVG Export Plug-In . SVG Version: 6.00 Build 0)  -->
<svg version="1.1" id="Layer_1" xmlns="http://www.w3.org/2000/svg" xmlns:xlink="http://www.w3.org/1999/xlink" x="0px" y="0px"
	 viewBox="0 0 500 500" style="enable-background:new 0 0 500 500;" xml:space="preserve">
<style type="text/css">
	.st0{fill:#F39200;}
	.st1{fill:url(#SVGID_1_);}
	.st2{fill:#312783;}
	.st3{font-family:'Corbel-Bold';}
	.st4{font-size:26.3132px;}
</style>
<path class="st0" d="M417.34,235.8c0,0-55.09-107-170.66-117.99c-123.59-9.88-156.72,77.65-156.72,77.65s-2.78,12.04,0.83,10.63
	c3.61-1.4,5.42-6.42,11.84-17.66s48.15-70.62,143.25-60.99C340.98,137.07,396.6,212.54,417.34,235.8z"/>
<linearGradient id="SVGID_1_" gradientUnits="userSpaceOnUse" x1="282.18" y1="278.1376" x2="360.142" y2="278.1376" gradientTransform="matrix(1 0 0 -1 0 499.8898)">
	<stop  offset="0.0323" style="stop-color:#178236"/>
	<stop  offset="1" style="stop-color:#52AE32"/>
</linearGradient>
<path class="st1" d="M316.2,251.33c0,0-1.3-1.2-2.31,0c-1,1.2-0.8,1.81-0.4,2.41s-0.16,0.8-0.33,1.1c-0.17,0.3-0.67,0.5-0.67,1.1
	c0,0.6,0,1.5,0,1.5s-3.41,0.5-3.41,0.9s-0.5,1-0.9,1.71c-0.4,0.7-0.7,1.5-1.91,1.5s-4.21-1.2-5.32-2.11c-1.1-0.9-3.11-0.4-3.21,0
	s-2.71,3.01-2.71,3.01l-2.41,0.9c0,0,1.1-3.11,1-3.81s-1.1-1.71-1.71-0.6c0,0-1.81,1.1-1.91-1.2c0,0-0.6-0.74-1.4-0.67
	c-0.8,0.07,1.71-0.64,2.11-0.84c0.4-0.2,3.31-2.81,2.81-3.91s-0.3-1.07-2.21-1.54c-1.91-0.47-3.91-0.67-3.71-1.17
	s5.12-4.11,3.61-4.71c-1.5-0.6-3.34,0.2-3.63-0.4c-0.29-0.6-0.19-1-1.59,0s-3.81,0.1-3.81,0.1s7.93-5.52,9.93-4.61
	c2.01,0.9,2.41-0.1,2.41-1.3s-0.6-1.61,0.6-1.1s2.21,1.5,2.51,1.4c0.3-0.1,0.8,0.95,1.55-2.51s1.5-2.11,2.31-1.25
	c0.8,0.85,4.66,1,4.36-0.55c-0.3-1.55,0.05-4.51-2.66-3.66c-2.71,0.85-2.41,2.31-3.36,2.11c-0.95-0.2-1.15-2.31-2.41-1.05
	c-1.25,1.25-4.61,3.71-4.56,2.91s-0.15-3.81-1.66-1.91s-2.46,4.56-2.96,4.06s-0.25-5.52-1.71-3.86c-1.45,1.66-2.51,0.1-2.01-0.75
	s2.01-2.06,2.41-2.46c0.4-0.4,0.45-0.55,0.5-1.25s1.35-2.06,2.96-2.06c0,0,0.5-0.35,0.65-1s1.3-1,2.46-0.3
	c1.15,0.7,2.86,1.05,3.41,0.6c0.55-0.45,1.96-1.42,3.81-0.99s2.66,0.24,2.21-0.82c-0.45-1.05-1.15-1.96-2.31-1.96
	c-1.15,0-1.91,0-2.26-0.75s-1.2-1.25-1.66-0.75c-0.45,0.5-2.36,1.91-2.91,1.91c-0.55,0-1.66-2.96-2.41-1.81
	c-0.75,1.15-1.61,1.81-2.16,1.5c-0.55-0.3-0.7-2.61,0.05-3.46s0.2-0.55-0.1-1.5c-0.3-0.95-0.7-1.81-1.05-2.96
	c-0.35-1.15-0.4-0.95-0.5-1.86c-0.1-0.9-0.6-2.51,1.81-5.17c0,0,1.25-1.25,1.3-2.16c0.05-0.9,0.35-0.85,1,0s2.06,1.55,2.56,0.35
	s0.8-1.5,0.25-1.96c-0.55-0.45-0.35-1.61,1.4-1.15c1.76,0.45,3.56,1.35,4.46-0.75s2.31-1.05,2.81-1.05s1.66-0.85,1.55-2.11
	c-0.1-1.25-0.75-2.31-2.51-1.5s-3.06,0.45-3.11-0.55s-0.2-1.96-0.9-1.2c-0.7,0.75-1.15,1.01-1.4-0.27s4.06-2.89,5.77-4.8
	s2.66-3.36,3.81-3.26s0.55-1.2,0.55-1.45s0.75-2.11,1.96-1.61s0.4,0.8,1.15,0.95s2.51-0.15,3.91,1s3.36,2.66,3.91,1.86
	c0.55-0.8-1.66-2.66-2.06-2.96s1.25-0.8,1.81-0.6c0.55,0.2,0.2-0.8,0.65-1.35s3.06-1.61,4.31-1.55s1.25-1.5,2.31-1.1
	c1.05,0.4,7.77,4.01,8.83,4.01c1.05,0,4.01-0.65,4.11,0.35c0.1,1-0.7,0.7-1.86,1.81c-1.15,1.1-1.25,2.26-0.65,2.86
	s1.5-0.3,2.01-0.65s2.36-1.05,2.71-0.15c0.35,0.9,1.96,3.16,3.26,3.16c1.3,0,5.17-0.65,5.82,0.4s0.35,1.25,1.3,2.46
	c0.95,1.2,1.76,1.55,2.56,2.01c0.8,0.45,0.95,0.65,0.8,1.35c-0.15,0.7-1,1.66-0.85,2.91s-0.9,0.9-1.15,1.15s-0.25,1.55-0.1,2.01
	c0.15,0.45,0.7,3.01-1.1,1.66c-1.81-1.35-5.92-4.06-8.08-4.31c-2.16-0.25-0.95-1.05-1.15-2.06c-0.2-1-3.11,1.55-3.11,1.55
	s-4.56-5.82-11.59-5.47c0,0-0.6,0.15,2.26,1.86s6.32,6.17,6.12,7.17s-2.56,3.66-1.86,4.11s1.45,0.4,1.76,0.9
	c0.3,0.5,1.81,1.2,2.51,1.45s1.1,0.75,1.2-0.85s0.4-2.41,0.7-2.76c0.3-0.35,1.86-1.35,2.26-1.35s7.52-0.3,7.93-0.05
	s4.11,0.15,4.61,2.11s0.55,2.96,0.65,4.21s0.2-0.15,1.25,0.45c1.05,0.6,0.9,0.85,0.25,2.01s-0.9,1.55-0.9,2.16s-0.35,3.11-1.45,2.66
	s-2.11-1.15-2.46-0.45s-0.9,0.4,0.15,1.55c1.05,1.15,0.6,1.86,1.3,1.91c0.7,0.05,2.31-0.05,2.76,0.4s0.75,1.15-0.1,1.25
	s-2.01,1-1.5,1.5s1.2,1.1,1.35,0.5s1.13-0.6,1.37-0.2c0.24,0.4,3.25,2.31,3.15,3.11s1,7.65-1.55,6.89s-1.35-1.82-1.96-1.47
	s-1.4,2.26-2.16,2.51s-0.25,0.9-1.45,0s-2.11-2.66-3.26-2.36c-1.15,0.3-1.35,0.1-2.21,0.8c-0.85,0.7-1.1,0.9-0.25,1.76
	s0.95,1.55,1.35,1.76c0.4,0.2,1.2,0.05,1.45,0.3s0.9,1.55-1.3,1.61c-2.21,0.05-3.46-0.7-3.61,0.2s-1.4,1.91-0.3,2.66
	s2.21,0.75,2.21,0.75s1.3-1.25,2.01-0.75c0.7,0.5,0.95,0.95,0.95,0.95l-13.39,13.04c0,0-0.45-1.45-0.95-1s-0.7,0.9-1.1,0.65
	s-0.55-1.25-0.95-1.25s-0.6,1.25-1.1,1s-1.2-1.55-3.46-3.91c-2.26-2.36,0,0.75-1.45-0.85c-1.45-1.61-0.8-1.5-0.8-1.5
	s-0.35-0.4-1.3-0.55c-0.95-0.15,0.2-0.1-1.4-0.15s-0.8-0.1-1.61-0.05c-0.8,0.05-1.05-0.05-1.91-0.05c-0.85,0-1.45-1.05-1.86,0
	c-0.4,1.05-0.15,1.15-0.75,1.15s-1.1-0.15-1.15,0.1C316.7,251.38,316.2,251.33,316.2,251.33z"/>
<path class="st0" d="M315.83,251.07c0,0,1.45,4.02,7.02,4.14v2.64c0,0-2.02,0.79-2.08,0.62s0,14.91,0,14.91l4.61-3.43v-14.57v-0.28
	c0,0,2.47-0.17,2.7-2.02c0,0-0.05-1.95-2.28-2.86C323.58,249.3,318.32,245.86,315.83,251.07z"/>
<g>
	<g>
		<path class="st2" d="M489.37,306.49c-77.06-10.44-124.47-54.22-133.55-63.28c-7.88,8.11-37.21,34.88-38.57,36.11l-2.84-3.11
			c12.46-11.37,36.8-33.81,39.73-37.4l1.54-1.88l1.64,1.8c0.48,0.52,48.54,52.19,132.6,63.59L489.37,306.49z"/>
	</g>
</g>
<g>
	<g>
		<polygon class="st2" points="363.62,288.33 359.41,288.33 359.41,278.11 353.65,278.11 353.65,288.33 349.44,288.33 
			349.44,273.89 363.62,273.89 		"/>
	</g>
</g>
<g>
	<g>
		<rect x="466.07" y="301.35" class="st2" width="4.21" height="14.79"/>
	</g>
</g>
<path class="st2" d="M353.79,188.91c-0.16,0.02,11.29,4.41,5.72,10.03c0,0,0.96,0.1,1.32,0.56c0.35,0.46,1.11,0.2,1.42,0.71
	s1.32,0.81,1.52,1.67c0,0-0.05-2.73,0.35-3.14c0.41-0.41,0.86-1.42,2.33-1.47c0,0,2.53-1.16,7.7,0.25c0,0-0.3-3.04-7.55-3.75
	c0,0,0.56-0.91-0.15-2.79c0,0-1.97,0.25-2.48,1.97C363.96,192.96,360.19,188.31,353.79,188.91z"/>
<g>
	<path class="st2" d="M54.32,261.34H67.4v14.71l-0.53,0.19c-5.32,1.95-9.95,2.94-13.74,2.94c-7.79,0-14.25-2.68-19.2-7.98
		c-4.96-5.3-7.47-12.25-7.47-20.63c0-8,2.52-14.83,7.48-20.32c4.94-5.47,11.11-8.24,18.32-8.24c7.82,0,15.82,2.61,23.78,7.75
		l0.93,0.6v-12.52l-0.35-0.16c-5.26-2.46-9.68-4.17-13.13-5.1c-3.47-0.93-7.19-1.4-11.04-1.4c-10.62,0-19.59,3.85-26.64,11.45
		c-7.04,7.58-10.61,17.2-10.61,28.6c0,10.82,3.45,20.05,10.25,27.43c6.81,7.4,16.03,11.15,27.4,11.15c8.28,0,16.75-2.06,25.15-6.12
		l0.34-0.16v-33.01h-24v10.82H54.32z"/>
	<path class="st2" d="M180.79,211.72l-29.95,74.9l-31.21-74.9h-5.25l-30.83,77.22h11.28l8.49-22.4h28.15l9.05,22.4h9.43h1.81h9.47
		l8.49-22.4h28.15l9.05,22.4h11.25l-32.14-77.22H180.79z M193.4,255.7h-19.36l9.32-25.1L193.4,255.7z M126.99,255.7h-19.36
		l9.32-25.1L126.99,255.7z"/>
	<path class="st2" d="M261.65,218.06c-3.96-4-9.32-6.02-15.93-6.02h-22.14v76.89h10.97v-32.78h6.59c6.47,0,11.53-0.79,15.02-2.35
		c3.54-1.58,6.36-4.15,8.39-7.63c2.02-3.47,3.05-7.5,3.05-11.99C267.61,227.48,265.61,222.06,261.65,218.06z M244.6,245.31h-10.04
		v-22.44h9.46c8.3,0,12.33,3.61,12.33,11.03c0,3.67-1.02,6.52-3.03,8.47C251.31,244.32,248.38,245.31,244.6,245.31z"/>
</g>
<g>
	<path class="st2" d="M19.83,297.11c-2.42,0-4.44,0.95-6.01,2.83c-1.56,1.86-2.35,4.33-2.35,7.33c0,2.8,0.7,5.09,2.09,6.83
		c1.4,1.75,3.3,2.64,5.63,2.64c1.79,0,3.31-0.38,4.52-1.12l0.14-0.09v-2.84l-0.47,0.34c-1.1,0.78-2.43,1.18-3.94,1.18
		c-1.63,0-2.9-0.62-3.91-1.88c-1.01-1.27-1.51-3.01-1.51-5.17c0-2.28,0.55-4.13,1.62-5.48c1.08-1.35,2.44-2.01,4.17-2.01
		c1.3,0,2.5,0.36,3.58,1.06l0.46,0.3v-3.04l-0.16-0.08C22.66,297.38,21.37,297.11,19.83,297.11z"/>
	<path class="st2" d="M30.94,302.38c-1.57,0-2.89,0.69-3.94,2.05c-1.03,1.34-1.55,3.08-1.55,5.19c0,2.22,0.48,3.98,1.43,5.22
		c0.96,1.27,2.31,1.91,3.99,1.91c1.69,0,3.08-0.45,4.12-1.33l0.11-0.09v-2.8l-0.5,0.46c-1,0.92-2.11,1.39-3.3,1.39
		c-1.04,0-1.84-0.35-2.43-1.08c-0.55-0.68-0.87-1.66-0.93-2.9h7.95v-1.41c0-2.03-0.43-3.65-1.27-4.81
		C33.74,302.98,32.51,302.38,30.94,302.38z M30.91,304.75c0.79,0,1.38,0.29,1.82,0.89c0.41,0.56,0.64,1.36,0.69,2.36h-5.43
		c0.16-0.93,0.49-1.7,0.98-2.29C29.51,305.06,30.14,304.75,30.91,304.75z"/>
	<path class="st2" d="M43.85,302.38c-1.42,0-2.57,0.6-3.44,1.8v-1.49H38v13.75h2.41v-7.8c0-1.13,0.28-2.08,0.83-2.82
		c0.54-0.72,1.19-1.07,2-1.07c1.56,0,2.32,1.27,2.32,3.89v7.8h2.41v-8.34c0-1.81-0.35-3.22-1.03-4.2
		C46.22,302.89,45.18,302.38,43.85,302.38z"/>
	<path class="st2" d="M53.75,298.66l-2.41,0.91v3.12H49.4v2.4h1.94v7.48c0,3.43,1.77,4.15,3.26,4.15c0.75,0,1.37-0.15,1.85-0.46
		l0.14-0.09v-2.63l-0.5,0.44c-0.27,0.24-0.59,0.36-0.98,0.36c-0.49,0-0.83-0.14-1.03-0.43c-0.22-0.32-0.33-0.9-0.33-1.72v-7.11h2.84
		v-2.4h-2.84C53.75,302.68,53.75,298.66,53.75,298.66z"/>
	<path class="st2" d="M63.49,302.45c-0.73,0-1.4,0.29-1.98,0.86c-0.27,0.26-0.51,0.58-0.71,0.94v-1.57h-2.4v13.75h2.41v-7.01
		c0-1.4,0.25-2.51,0.73-3.31c0.46-0.76,1.01-1.13,1.67-1.13c0.51,0,0.91,0.12,1.16,0.35l0.5,0.45v-3.05l-0.17-0.08
		C64.41,302.52,64.01,302.45,63.49,302.45z"/>
	<path class="st2" d="M71.21,302.38c-1.85,0-3.34,0.66-4.42,1.97c-1.08,1.29-1.62,3.1-1.62,5.37c0,2.09,0.52,3.8,1.56,5.08
		c1.05,1.3,2.47,1.95,4.22,1.95c1.8,0,3.25-0.67,4.32-2.01c1.06-1.31,1.59-3.07,1.59-5.23c0-2.2-0.5-3.95-1.48-5.21
		C74.38,303.02,72.98,302.38,71.21,302.38z M71.08,314.37c-1.05,0-1.87-0.4-2.5-1.23c-0.64-0.84-0.96-2.02-0.96-3.5
		c0-1.55,0.32-2.77,0.95-3.63c0.62-0.85,1.44-1.26,2.51-1.26s1.87,0.39,2.45,1.21c0.59,0.83,0.89,2.05,0.89,3.63
		c0,1.56-0.3,2.76-0.89,3.59C72.95,313.98,72.15,314.37,71.08,314.37z"/>
	<polygon class="st2" points="84.01,299.87 85.55,299.87 85.55,313.99 84.01,313.99 84.01,316.44 89.55,316.44 89.55,313.99 
		88.01,313.99 88.01,299.87 89.55,299.87 89.55,297.42 84.01,297.42 	"/>
	<path class="st2" d="M97.16,302.38c-1.42,0-2.57,0.6-3.44,1.8v-1.49h-2.41v13.75h2.41v-7.8c0-1.14,0.28-2.08,0.83-2.82
		c0.53-0.72,1.19-1.07,2-1.07c1.56,0,2.32,1.27,2.32,3.89v7.8h2.41v-8.34c0-1.81-0.35-3.22-1.03-4.2
		C99.52,302.89,98.49,302.38,97.16,302.38z"/>
	<path class="st2" d="M107.05,298.66l-2.41,0.91v3.12h-1.94v2.4h1.94v7.48c0,3.43,1.77,4.15,3.26,4.15c0.75,0,1.37-0.15,1.85-0.46
		l0.14-0.09v-2.63l-0.5,0.44c-0.27,0.24-0.59,0.36-0.98,0.36c-0.49,0-0.83-0.14-1.03-0.43c-0.22-0.32-0.33-0.9-0.33-1.72v-7.11h2.84
		v-2.4h-2.84C107.05,302.68,107.05,298.66,107.05,298.66z"/>
	<path class="st2" d="M116.25,302.38c-1.57,0-2.89,0.69-3.94,2.05c-1.03,1.33-1.55,3.08-1.55,5.19c0,2.22,0.48,3.98,1.42,5.22
		c0.97,1.27,2.31,1.91,3.99,1.91c1.69,0,3.08-0.45,4.12-1.33l0.11-0.09v-2.8l-0.5,0.46c-1,0.92-2.11,1.39-3.3,1.39
		c-1.04,0-1.84-0.35-2.43-1.08c-0.55-0.68-0.87-1.66-0.93-2.9h7.95v-1.41c0-2.03-0.43-3.65-1.27-4.81
		C119.05,302.98,117.82,302.38,116.25,302.38z M116.22,304.75c0.79,0,1.38,0.29,1.82,0.89c0.41,0.57,0.65,1.36,0.69,2.36h-5.43
		c0.16-0.93,0.49-1.7,0.98-2.29C114.82,305.06,115.45,304.75,116.22,304.75z"/>
	<path class="st2" d="M131.12,303.85c-0.77-0.98-1.82-1.47-3.12-1.47c-1.7,0-3.05,0.71-4.03,2.11c-0.95,1.36-1.43,3.21-1.43,5.5
		c0,2.03,0.45,3.67,1.34,4.88c0.91,1.24,2.13,1.88,3.63,1.88c1.52,0,2.73-0.61,3.62-1.82v0.44c0,3.27-1.26,4.86-3.86,4.86
		c-1.09,0-2.26-0.4-3.47-1.18l-0.46-0.3v2.83l0.15,0.09c1.09,0.64,2.37,0.97,3.81,0.97c4.14,0,6.24-2.54,6.24-7.54v-12.4h-2.41
		L131.12,303.85L131.12,303.85z M130.28,305.76c0.56,0.69,0.84,1.53,0.84,2.49v1.94c0,1.24-0.3,2.26-0.89,3.04
		c-0.58,0.77-1.31,1.14-2.23,1.14c-0.9,0-1.61-0.39-2.16-1.19c-0.57-0.82-0.86-1.95-0.86-3.34c0-1.63,0.3-2.92,0.9-3.81
		c0.58-0.86,1.35-1.28,2.37-1.28C129.07,304.75,129.73,305.08,130.28,305.76z"/>
	<path class="st2" d="M141.68,302.45c-0.73,0-1.4,0.29-1.98,0.86c-0.27,0.26-0.51,0.58-0.71,0.94v-1.57h-2.41v13.75h2.41v-7.01
		c0-1.4,0.25-2.51,0.73-3.31c0.46-0.76,1.01-1.13,1.67-1.13c0.51,0,0.91,0.12,1.16,0.35l0.5,0.45v-3.05l-0.17-0.08
		C142.6,302.52,142.2,302.45,141.68,302.45z"/>
	<path class="st2" d="M148.81,302.38c-1.5,0-2.85,0.43-4.01,1.29l-0.12,0.09v3.03l0.51-0.51c1.03-1.02,2.19-1.53,3.46-1.53
		c0.49,0,1.93,0,2.02,2.8l-3.12,0.51c-2.64,0.43-3.97,1.97-3.97,4.59c0,1.22,0.35,2.22,1.03,2.96c0.69,0.75,1.65,1.14,2.86,1.14
		c1.33,0,2.4-0.56,3.21-1.66v1.35h2.41v-8.85C153.09,304.13,151.65,302.38,148.81,302.38z M150.68,309.84v0.96
		c0,1.05-0.27,1.92-0.81,2.59c-0.53,0.66-1.18,0.99-1.98,0.99c-0.57,0-1.01-0.17-1.35-0.52c-0.34-0.35-0.5-0.8-0.5-1.36
		c0-0.78,0.18-1.32,0.53-1.61c0.38-0.31,0.97-0.53,1.75-0.66L150.68,309.84z"/>
	<rect x="155.89" y="296.37" class="st2" width="2.41" height="20.07"/>
	<path class="st2" d="M175.33,303.83c-0.75-0.97-1.8-1.45-3.12-1.45c-1.66,0-3,0.7-4,2.09c-0.97,1.36-1.46,3.17-1.46,5.4
		c0,2.09,0.45,3.76,1.33,4.99c0.9,1.25,2.13,1.89,3.64,1.89c1.53,0,2.74-0.61,3.62-1.83v1.52h2.41v-20.07h-2.41L175.33,303.83
		L175.33,303.83z M174.5,305.74c0.55,0.68,0.83,1.52,0.83,2.51v1.94c0,1.22-0.3,2.24-0.88,3.03c-0.57,0.77-1.29,1.15-2.21,1.15
		c-0.92,0-1.64-0.39-2.19-1.19c-0.57-0.82-0.86-1.97-0.86-3.42c0-1.59,0.3-2.85,0.9-3.74c0.58-0.86,1.34-1.28,2.35-1.28
		C173.28,304.75,173.95,305.08,174.5,305.74z"/>
	<path class="st2" d="M185.51,302.38c-1.57,0-2.89,0.69-3.94,2.05c-1.03,1.33-1.55,3.08-1.55,5.19c0,2.22,0.48,3.98,1.42,5.22
		c0.97,1.27,2.31,1.91,3.99,1.91c1.69,0,3.08-0.45,4.12-1.33l0.11-0.09v-2.8l-0.5,0.46c-1,0.92-2.11,1.39-3.3,1.39
		c-1.04,0-1.84-0.35-2.43-1.08c-0.55-0.68-0.87-1.66-0.93-2.9h7.95v-1.41c0-2.03-0.43-3.65-1.27-4.81
		C188.32,302.98,187.08,302.38,185.51,302.38z M185.48,304.75c0.79,0,1.38,0.29,1.82,0.89c0.41,0.57,0.65,1.36,0.69,2.36h-5.43
		c0.16-0.93,0.49-1.7,0.98-2.29C184.08,305.06,184.71,304.75,185.48,304.75z"/>
	<path class="st2" d="M209.47,297.42l-6.25,19.02h2.7l1.57-5.16h6.25l1.67,5.16h2.68l-6.27-19.02H209.47z M210.61,301.33l2.34,7.4
		h-4.65L210.61,301.33z"/>
	<path class="st2" d="M225.5,302.38c-1.51,0-2.73,0.64-3.64,1.91v-1.61h-2.41v19.8h2.41v-7.3c0.8,1.03,1.85,1.56,3.12,1.56
		c1.69,0,3.04-0.71,4.01-2.11c0.95-1.37,1.43-3.2,1.43-5.46c0-2.03-0.43-3.68-1.28-4.9C228.28,303.01,227.05,302.38,225.5,302.38z
		 M227.98,309.14c0,1.67-0.3,2.99-0.88,3.91c-0.57,0.89-1.32,1.32-2.31,1.32c-0.84,0-1.52-0.34-2.07-1.02
		c-0.56-0.7-0.84-1.57-0.84-2.58v-1.84c0-1.21,0.3-2.23,0.9-3.02c0.58-0.78,1.33-1.16,2.29-1.16c0.89,0,1.58,0.37,2.11,1.12
		C227.7,306.64,227.98,307.74,227.98,309.14z"/>
	<path class="st2" d="M237.98,302.38c-1.85,0-3.34,0.66-4.42,1.97c-1.08,1.29-1.62,3.1-1.62,5.37c0,2.09,0.52,3.8,1.56,5.08
		c1.05,1.3,2.47,1.95,4.22,1.95c1.8,0,3.25-0.67,4.32-2.01c1.06-1.31,1.59-3.07,1.59-5.23c0-2.2-0.5-3.95-1.48-5.21
		C241.16,303.02,239.75,302.38,237.98,302.38z M237.85,314.37c-1.05,0-1.87-0.4-2.5-1.23c-0.64-0.84-0.96-2.02-0.96-3.5
		c0-1.55,0.32-2.77,0.95-3.63c0.62-0.85,1.44-1.26,2.51-1.26c1.07,0,1.87,0.39,2.45,1.21c0.59,0.83,0.89,2.05,0.89,3.63
		c0,1.56-0.3,2.76-0.89,3.59C239.72,313.98,238.92,314.37,237.85,314.37z"/>
	<path class="st2" d="M249.86,312.94l-3.09-10.25h-2.65l4.5,13.42l-0.87,2.39c-0.56,1.57-1.42,2.01-2.72,1.49l-0.41-0.16v2.54
		l0.2,0.07c0.35,0.12,0.78,0.18,1.28,0.18c1.81,0,3.22-1.44,4.18-4.29l5.32-15.66h-2.51L249.86,312.94z"/>
	<path class="st2" d="M261.99,302.38c-1.85,0-3.34,0.66-4.42,1.97c-1.08,1.29-1.62,3.1-1.62,5.37c0,2.09,0.52,3.8,1.56,5.08
		c1.05,1.3,2.47,1.95,4.22,1.95c1.8,0,3.25-0.67,4.32-2.01c1.06-1.31,1.59-3.07,1.59-5.23c0-2.2-0.5-3.95-1.48-5.21
		C265.16,303.02,263.76,302.38,261.99,302.38z M261.85,314.37c-1.05,0-1.87-0.4-2.5-1.23c-0.64-0.84-0.96-2.02-0.96-3.5
		c0-1.55,0.32-2.77,0.95-3.63c0.62-0.85,1.44-1.26,2.51-1.26s1.87,0.39,2.45,1.21c0.59,0.83,0.89,2.05,0.89,3.63
		c0,1.56-0.3,2.76-0.89,3.59C263.73,313.98,262.93,314.37,261.85,314.37z"/>
	<path class="st2" d="M282.82,308.78h3.46v4.69c-0.82,0.48-1.8,0.73-2.9,0.73c-1.72,0-3.04-0.62-4.03-1.88
		c-1-1.27-1.51-3.06-1.51-5.3c0-2.18,0.55-3.97,1.63-5.34c1.08-1.36,2.43-2.02,4.11-2.02c1.67,0,3.14,0.46,4.35,1.35l0.48,0.35
		v-3.16l-0.15-0.09c-1.21-0.67-2.71-1.01-4.47-1.01c-2.45,0-4.5,0.96-6.1,2.85c-1.58,1.88-2.39,4.3-2.39,7.21
		c0,2.85,0.72,5.18,2.15,6.92c1.44,1.76,3.36,2.65,5.7,2.65c1.99,0,3.82-0.54,5.45-1.62l0.14-0.09v-8.81h-5.91v2.57H282.82z"/>
	<path class="st2" d="M296.28,302.38c-1.57,0-2.89,0.69-3.94,2.05c-1.03,1.33-1.55,3.08-1.55,5.19c0,2.22,0.48,3.98,1.42,5.22
		c0.97,1.27,2.31,1.91,3.99,1.91c1.69,0,3.08-0.45,4.12-1.33l0.11-0.09v-2.8l-0.5,0.46c-1,0.92-2.11,1.39-3.3,1.39
		c-1.04,0-1.84-0.35-2.43-1.08c-0.55-0.68-0.87-1.66-0.93-2.9h7.95v-1.41c0-2.03-0.43-3.65-1.27-4.81
		C299.08,302.98,297.85,302.38,296.28,302.38z M296.24,304.75c0.79,0,1.38,0.29,1.82,0.89c0.41,0.57,0.65,1.36,0.69,2.36h-5.43
		c0.16-0.93,0.49-1.7,0.98-2.29C294.84,305.06,295.48,304.75,296.24,304.75z"/>
	<path class="st2" d="M308.43,302.45c-0.73,0-1.4,0.29-1.98,0.86c-0.27,0.26-0.51,0.58-0.71,0.94v-1.57h-2.41v13.75h2.41v-7.01
		c0-1.4,0.25-2.51,0.73-3.31c0.46-0.76,1.01-1.13,1.67-1.13c0.51,0,0.91,0.12,1.16,0.35l0.5,0.45v-3.05l-0.17-0.08
		C309.35,302.52,308.95,302.45,308.43,302.45z"/>
	<path class="st2" d="M311.34,297.1c-0.28,0.32-0.41,0.71-0.41,1.18s0.14,0.86,0.42,1.18c0.29,0.32,0.64,0.49,1.05,0.49
		c0.42,0,0.78-0.17,1.07-0.5c0.28-0.32,0.42-0.71,0.42-1.16c0-0.47-0.14-0.87-0.42-1.18C312.89,296.45,311.92,296.44,311.34,297.1z"
		/>
	<rect x="311.17" y="302.68" class="st2" width="2.41" height="13.75"/>
	<path class="st2" d="M321.02,302.38c-1.5,0-2.85,0.43-4.01,1.29l-0.12,0.09v3.03l0.51-0.51c1.03-1.02,2.19-1.53,3.46-1.53
		c0.49,0,1.93,0,2.02,2.8l-3.12,0.51c-2.64,0.43-3.97,1.97-3.97,4.59c0,1.22,0.35,2.22,1.03,2.96c0.69,0.75,1.65,1.14,2.86,1.14
		c1.33,0,2.4-0.56,3.21-1.66v1.35h2.41v-8.85C325.3,304.13,323.86,302.38,321.02,302.38z M322.89,309.84v0.96
		c0,1.05-0.27,1.92-0.81,2.59c-0.53,0.66-1.18,0.99-1.98,0.99c-0.57,0-1.01-0.17-1.35-0.52c-0.34-0.35-0.5-0.8-0.5-1.36
		c0-0.78,0.18-1.32,0.53-1.61c0.38-0.31,0.97-0.53,1.75-0.66L322.89,309.84z"/>
	<polygon class="st2" points="324,295.98 321.43,295.98 318.63,300.79 320.71,300.79 	"/>
	<path class="st2" d="M331.09,298.66l-2.41,0.91v3.12h-1.94v2.4h1.94v7.48c0,3.43,1.77,4.15,3.26,4.15c0.75,0,1.37-0.15,1.85-0.46
		l0.14-0.09v-2.63l-0.5,0.44c-0.27,0.24-0.59,0.36-0.98,0.36c-0.49,0-0.83-0.14-1.03-0.43c-0.22-0.32-0.33-0.9-0.33-1.72v-7.11h2.84
		v-2.4h-2.84L331.09,298.66L331.09,298.66z"/>
	<path class="st2" d="M340.83,302.45c-0.73,0-1.4,0.29-1.98,0.86c-0.27,0.26-0.51,0.58-0.71,0.94v-1.57h-2.41v13.75h2.41v-7.01
		c0-1.4,0.25-2.51,0.73-3.31c0.46-0.76,1.01-1.13,1.67-1.13c0.51,0,0.91,0.12,1.16,0.35l0.5,0.45v-3.05l-0.17-0.08
		C341.75,302.52,341.35,302.45,340.83,302.45z"/>
	<path class="st2" d="M343.74,297.1c-0.28,0.32-0.41,0.71-0.41,1.18s0.14,0.86,0.42,1.18c0.29,0.32,0.64,0.49,1.05,0.49
		c0.42,0,0.78-0.17,1.07-0.5c0.28-0.32,0.42-0.71,0.42-1.16c0-0.47-0.14-0.87-0.42-1.18C345.29,296.45,344.32,296.44,343.74,297.1z"
		/>
	<rect x="343.57" y="302.68" class="st2" width="2.41" height="13.75"/>
	<path class="st2" d="M354.41,302.38c-1.86,0-3.37,0.7-4.49,2.08c-1.1,1.36-1.66,3.18-1.66,5.41c0,2.01,0.52,3.67,1.55,4.93
		c1.04,1.29,2.43,1.94,4.12,1.94c1.25,0,2.34-0.32,3.25-0.97l0.13-0.09v-2.83l-0.5,0.44c-0.81,0.71-1.67,1.07-2.57,1.07
		c-1.08,0-1.91-0.4-2.55-1.22c-0.65-0.83-0.98-2-0.98-3.46c0-1.49,0.35-2.71,1.04-3.61c0.68-0.89,1.53-1.33,2.6-1.33
		c0.88,0,1.72,0.32,2.49,0.96l0.49,0.4v-2.97l-0.15-0.09C356.38,302.61,355.45,302.38,354.41,302.38z"/>
	<path class="st2" d="M364.71,302.38c-1.85,0-3.34,0.66-4.42,1.97c-1.08,1.29-1.62,3.1-1.62,5.37c0,2.09,0.52,3.8,1.56,5.08
		c1.05,1.3,2.47,1.95,4.22,1.95c1.8,0,3.25-0.67,4.32-2.01c1.06-1.31,1.59-3.07,1.59-5.23c0-2.2-0.5-3.95-1.48-5.21
		C367.89,303.02,366.48,302.38,364.71,302.38z M364.58,314.37c-1.05,0-1.87-0.4-2.5-1.23c-0.64-0.84-0.96-2.02-0.96-3.5
		c0-1.55,0.32-2.77,0.95-3.63c0.62-0.85,1.44-1.26,2.51-1.26s1.87,0.39,2.45,1.21c0.59,0.83,0.89,2.05,0.89,3.63
		c0,1.56-0.3,2.76-0.89,3.59C366.45,313.98,365.65,314.37,364.58,314.37z"/>
	<polygon class="st2" points="371.18,319.83 373.06,319.83 374.99,312.91 372.59,312.91 	"/>
	<polygon class="st2" points="382.4,299.87 383.95,299.87 383.95,313.99 382.4,313.99 382.4,316.44 387.94,316.44 387.94,313.99 
		386.4,313.99 386.4,299.87 387.94,299.87 387.94,297.42 382.4,297.42 	"/>
	<path class="st2" d="M389.53,313.77c-0.28,0.34-0.43,0.75-0.43,1.21s0.14,0.87,0.43,1.21c0.3,0.35,0.66,0.53,1.09,0.53
		s0.81-0.18,1.11-0.53c0.29-0.34,0.43-0.75,0.43-1.21c0-0.47-0.15-0.87-0.43-1.22C391.14,313.06,390.13,313.05,389.53,313.77z"/>
	<path class="st2" d="M405.31,297.42l-6.25,19.02h2.7l1.57-5.16h6.25l1.67,5.16h2.68l-6.27-19.02H405.31z M406.45,301.33l2.34,7.4
		h-4.65L406.45,301.33z"/>
	<path class="st2" d="M415.13,313.77c-0.28,0.34-0.43,0.75-0.43,1.21s0.14,0.87,0.43,1.21c0.3,0.35,0.66,0.53,1.09,0.53
		s0.81-0.18,1.11-0.53c0.29-0.34,0.43-0.75,0.43-1.21c0-0.47-0.15-0.87-0.43-1.22C416.74,313.06,415.73,313.05,415.13,313.77z"/>
	<path class="st2" d="M430.68,303.22c0-1.82-0.5-3.26-1.48-4.27c-0.98-1.02-2.37-1.53-4.14-1.53h-4.64v19.02h2.45v-6.96h1.78
		c1.83,0,3.31-0.59,4.4-1.77C430.13,306.55,430.68,305.03,430.68,303.22z M422.88,299.97h1.87c2.29,0,3.4,1.09,3.4,3.35
		c0,1.15-0.31,2.05-0.92,2.67c-0.61,0.62-1.52,0.93-2.71,0.93h-1.64L422.88,299.97L422.88,299.97z"/>
	<path class="st2" d="M431.26,313.77c-0.6-0.71-1.61-0.72-2.21,0c-0.28,0.34-0.43,0.75-0.43,1.21s0.14,0.87,0.43,1.21
		c0.3,0.35,0.66,0.53,1.09,0.53s0.81-0.18,1.11-0.53c0.29-0.34,0.43-0.75,0.43-1.21C431.69,314.52,431.55,314.11,431.26,313.77z"/>
</g>
<text transform="matrix(0.8475 0 0 1 19.0348 347.6427)" class="st2 st3 st4">ESTANCIA DE DÍA PARA EL ADULTO MAYOR</text>
</svg>
